<mxfile host="app.diagrams.net" modified="2020-09-30T16:57:53.579Z" agent="5.0 (Windows NT 10.0; Win64; x64) AppleWebKit/537.36 (KHTML, like Gecko) Chrome/85.0.4183.121 Safari/537.36" etag="9g7NfEiuUD8YbhSuhNOk" version="13.7.4" type="github">
  <diagram id="APbCHEt9h7LmyBrYfhhx" name="Page-1">
    <mxGraphModel dx="2090" dy="643" grid="1" gridSize="10" guides="1" tooltips="1" connect="1" arrows="1" fold="1" page="1" pageScale="1" pageWidth="850" pageHeight="1100" math="0" shadow="0">
      <root>
        <mxCell id="0" />
        <mxCell id="1" parent="0" />
        <mxCell id="TYA-corCzER_tpGZpnsk-2" value="Business Process" style="rounded=0;whiteSpace=wrap;html=1;fillColor=#dae8fc;strokeColor=#6c8ebf;" parent="1" vertex="1">
          <mxGeometry x="20" y="20" width="120" height="60" as="geometry" />
        </mxCell>
        <mxCell id="TYA-corCzER_tpGZpnsk-3" value="Technical Process" style="rounded=0;whiteSpace=wrap;html=1;fillColor=#97D077;strokeColor=#82b366;" parent="1" vertex="1">
          <mxGeometry x="20" y="100" width="120" height="60" as="geometry" />
        </mxCell>
        <mxCell id="TYA-corCzER_tpGZpnsk-4" value="" style="ellipse;whiteSpace=wrap;html=1;aspect=fixed;fillColor=#ffe6cc;strokeColor=#d79b00;" parent="1" vertex="1">
          <mxGeometry x="200" y="40" width="30" height="30" as="geometry" />
        </mxCell>
        <mxCell id="TYA-corCzER_tpGZpnsk-5" value="Trigger" style="text;html=1;strokeColor=#d79b00;fillColor=#ffe6cc;align=center;verticalAlign=middle;whiteSpace=wrap;rounded=0;" parent="1" vertex="1">
          <mxGeometry x="250" y="45" width="40" height="20" as="geometry" />
        </mxCell>
        <mxCell id="HUFOrXZjp_os2G7rT3iw-18" style="edgeStyle=orthogonalEdgeStyle;rounded=0;orthogonalLoop=1;jettySize=auto;html=1;exitX=0.5;exitY=1;exitDx=0;exitDy=0;entryX=0.5;entryY=0;entryDx=0;entryDy=0;" parent="1" source="TYA-corCzER_tpGZpnsk-7" target="HUFOrXZjp_os2G7rT3iw-16" edge="1">
          <mxGeometry relative="1" as="geometry" />
        </mxCell>
        <mxCell id="Ly3nlQLUf3ytLONR5fyU-18" style="edgeStyle=orthogonalEdgeStyle;rounded=0;orthogonalLoop=1;jettySize=auto;html=1;entryX=0;entryY=0.5;entryDx=0;entryDy=0;" edge="1" parent="1" source="TYA-corCzER_tpGZpnsk-7" target="gYBFZbuTnCWKFlB4koAg-2">
          <mxGeometry relative="1" as="geometry">
            <Array as="points">
              <mxPoint x="390" y="300" />
              <mxPoint x="390" y="120" />
            </Array>
          </mxGeometry>
        </mxCell>
        <mxCell id="TYA-corCzER_tpGZpnsk-7" value="Borough User Submits SLA Change Request" style="rounded=0;whiteSpace=wrap;html=1;fillColor=#99CCFF;strokeColor=#6c8ebf;" parent="1" vertex="1">
          <mxGeometry x="142.01" y="270" width="120" height="60" as="geometry" />
        </mxCell>
        <mxCell id="TYA-corCzER_tpGZpnsk-9" value="COO Focht Reviews Request" style="rounded=0;whiteSpace=wrap;html=1;fillColor=#dae8fc;strokeColor=#6c8ebf;" parent="1" vertex="1">
          <mxGeometry x="440" y="270" width="120" height="60" as="geometry" />
        </mxCell>
        <mxCell id="HUFOrXZjp_os2G7rT3iw-30" style="edgeStyle=orthogonalEdgeStyle;rounded=0;orthogonalLoop=1;jettySize=auto;html=1;exitX=0.5;exitY=1;exitDx=0;exitDy=0;entryX=0.5;entryY=0;entryDx=0;entryDy=0;" parent="1" source="TYA-corCzER_tpGZpnsk-22" target="HUFOrXZjp_os2G7rT3iw-29" edge="1">
          <mxGeometry relative="1" as="geometry" />
        </mxCell>
        <mxCell id="TYA-corCzER_tpGZpnsk-22" value="Insert:&lt;br&gt;&lt;span style=&quot;font-weight: normal&quot;&gt;new record into tbl_change_request with&lt;br&gt;- sla_change_status = 1 for &quot;submitted&quot;&lt;br&gt;-&amp;nbsp;&lt;/span&gt;&lt;span style=&quot;font-weight: 400&quot;&gt;set effective_start_adj of inserted records equal to Sunday of or immediately following effective_start&lt;/span&gt;&lt;span style=&quot;font-weight: normal&quot;&gt;&lt;br&gt;&lt;/span&gt;" style="rounded=0;whiteSpace=wrap;html=1;fillColor=#97D077;strokeColor=#82b366;fontStyle=1;align=left;" parent="1" vertex="1">
          <mxGeometry x="69.74" y="660" width="264.51" height="91.9" as="geometry" />
        </mxCell>
        <mxCell id="Ly3nlQLUf3ytLONR5fyU-26" style="edgeStyle=orthogonalEdgeStyle;rounded=0;orthogonalLoop=1;jettySize=auto;html=1;entryX=0;entryY=0.5;entryDx=0;entryDy=0;" edge="1" parent="1" source="TYA-corCzER_tpGZpnsk-24" target="TYA-corCzER_tpGZpnsk-53">
          <mxGeometry relative="1" as="geometry">
            <Array as="points">
              <mxPoint x="590" y="935" />
              <mxPoint x="590" y="480" />
            </Array>
          </mxGeometry>
        </mxCell>
        <mxCell id="TYA-corCzER_tpGZpnsk-24" value="Insert:&lt;br&gt;&lt;span style=&quot;font-weight: normal&quot;&gt;new record into tbl_change_request_status with&lt;br&gt;- corresponding change_request_id&amp;nbsp;&amp;nbsp;&lt;/span&gt;&lt;br&gt;&lt;span style=&quot;font-weight: normal&quot;&gt;- sla_change_status = 1 for &quot;submitted&quot;&lt;/span&gt;&lt;br&gt;&lt;span style=&quot;font-weight: normal&quot;&gt;- created_user to the&amp;nbsp;&lt;/span&gt;&lt;span style=&quot;font-weight: 400&quot;&gt;creating user&#39;s employee reference number (ERN)&lt;/span&gt;&lt;span style=&quot;font-weight: normal&quot;&gt;&lt;br&gt;&lt;/span&gt;" style="rounded=0;whiteSpace=wrap;html=1;fillColor=#97D077;strokeColor=#82b366;fontStyle=1;align=left;" parent="1" vertex="1">
          <mxGeometry x="62.62" y="880" width="278.75" height="110" as="geometry" />
        </mxCell>
        <mxCell id="TYA-corCzER_tpGZpnsk-18" value="" style="edgeStyle=orthogonalEdgeStyle;rounded=0;orthogonalLoop=1;jettySize=auto;html=1;" parent="1" source="TYA-corCzER_tpGZpnsk-11" target="TYA-corCzER_tpGZpnsk-17" edge="1">
          <mxGeometry relative="1" as="geometry" />
        </mxCell>
        <mxCell id="TYA-corCzER_tpGZpnsk-11" value="Reject Request" style="rounded=0;whiteSpace=wrap;html=1;fillColor=#dae8fc;strokeColor=#6c8ebf;" parent="1" vertex="1">
          <mxGeometry x="600" y="205" width="120" height="60" as="geometry" />
        </mxCell>
        <mxCell id="Ly3nlQLUf3ytLONR5fyU-4" style="edgeStyle=orthogonalEdgeStyle;rounded=0;orthogonalLoop=1;jettySize=auto;html=1;" edge="1" parent="1" source="TYA-corCzER_tpGZpnsk-17">
          <mxGeometry relative="1" as="geometry">
            <mxPoint x="1135" y="235" as="targetPoint" />
          </mxGeometry>
        </mxCell>
        <mxCell id="TYA-corCzER_tpGZpnsk-17" value="&lt;div&gt;&lt;span&gt;&lt;b&gt;Update:&lt;/b&gt;&lt;/span&gt;&lt;/div&gt;&lt;div&gt;&lt;span&gt;change request record in tbl_change_request with sla_change_status = 3 for &quot;rejected&quot;&lt;/span&gt;&lt;/div&gt;" style="rounded=0;whiteSpace=wrap;html=1;fillColor=#97D077;strokeColor=#82b366;align=left;" parent="1" vertex="1">
          <mxGeometry x="800" y="190" width="230" height="90" as="geometry" />
        </mxCell>
        <mxCell id="utrAC_NS1D6aVvXHYf-W-8" style="edgeStyle=orthogonalEdgeStyle;rounded=0;orthogonalLoop=1;jettySize=auto;html=1;exitX=1;exitY=0.5;exitDx=0;exitDy=0;" parent="1" source="TYA-corCzER_tpGZpnsk-14" target="utrAC_NS1D6aVvXHYf-W-7" edge="1">
          <mxGeometry relative="1" as="geometry" />
        </mxCell>
        <mxCell id="TYA-corCzER_tpGZpnsk-14" value="Approve Request" style="rounded=0;whiteSpace=wrap;html=1;fillColor=#dae8fc;strokeColor=#6c8ebf;" parent="1" vertex="1">
          <mxGeometry x="600" y="320" width="120" height="60" as="geometry" />
        </mxCell>
        <mxCell id="3o3nBdtsmn0ed2RaHUh7-10" value="" style="edgeStyle=orthogonalEdgeStyle;rounded=0;orthogonalLoop=1;jettySize=auto;html=1;" parent="1" source="TYA-corCzER_tpGZpnsk-32" target="3o3nBdtsmn0ed2RaHUh7-9" edge="1">
          <mxGeometry relative="1" as="geometry" />
        </mxCell>
        <mxCell id="HUFOrXZjp_os2G7rT3iw-37" style="edgeStyle=orthogonalEdgeStyle;rounded=0;orthogonalLoop=1;jettySize=auto;html=1;exitX=1;exitY=0.5;exitDx=0;exitDy=0;entryX=0.5;entryY=1;entryDx=0;entryDy=0;" parent="1" source="TYA-corCzER_tpGZpnsk-32" target="TYA-corCzER_tpGZpnsk-39" edge="1">
          <mxGeometry relative="1" as="geometry" />
        </mxCell>
        <mxCell id="TYA-corCzER_tpGZpnsk-32" value="Is the effective_start_adj date equal to today&#39;s date minus 1 hour?" style="rounded=0;whiteSpace=wrap;html=1;fillColor=#99CCFF;strokeColor=#6c8ebf;" parent="1" vertex="1">
          <mxGeometry x="813" y="723.5" width="120" height="60" as="geometry" />
        </mxCell>
        <mxCell id="HUFOrXZjp_os2G7rT3iw-38" style="edgeStyle=orthogonalEdgeStyle;rounded=0;orthogonalLoop=1;jettySize=auto;html=1;exitX=0.5;exitY=0;exitDx=0;exitDy=0;entryX=1;entryY=0.5;entryDx=0;entryDy=0;" parent="1" source="TYA-corCzER_tpGZpnsk-39" target="TYA-corCzER_tpGZpnsk-46" edge="1">
          <mxGeometry relative="1" as="geometry" />
        </mxCell>
        <mxCell id="TYA-corCzER_tpGZpnsk-39" value="No" style="rounded=0;whiteSpace=wrap;html=1;fillColor=#99CCFF;strokeColor=#6c8ebf;" parent="1" vertex="1">
          <mxGeometry x="1002" y="659" width="50" height="30" as="geometry" />
        </mxCell>
        <mxCell id="TYA-corCzER_tpGZpnsk-21" style="edgeStyle=orthogonalEdgeStyle;rounded=0;orthogonalLoop=1;jettySize=auto;html=1;exitX=0.5;exitY=1;exitDx=0;exitDy=0;" parent="1" source="TYA-corCzER_tpGZpnsk-17" target="TYA-corCzER_tpGZpnsk-17" edge="1">
          <mxGeometry relative="1" as="geometry" />
        </mxCell>
        <mxCell id="TYA-corCzER_tpGZpnsk-44" value="" style="rhombus;whiteSpace=wrap;html=1;align=left;fillColor=#f8cecc;strokeColor=#b85450;" parent="1" vertex="1">
          <mxGeometry x="200" y="90" width="30" height="30" as="geometry" />
        </mxCell>
        <mxCell id="TYA-corCzER_tpGZpnsk-45" value="Stored Prodedure" style="text;html=1;strokeColor=#b85450;fillColor=#f8cecc;align=center;verticalAlign=middle;whiteSpace=wrap;rounded=0;" parent="1" vertex="1">
          <mxGeometry x="240" y="95" width="120" height="20" as="geometry" />
        </mxCell>
        <mxCell id="TYA-corCzER_tpGZpnsk-48" value="&lt;b&gt;sp_i_tbl_unit_sla_season&lt;br&gt;&lt;/b&gt;" style="text;html=1;strokeColor=#b85450;fillColor=#f8cecc;align=center;verticalAlign=middle;whiteSpace=wrap;rounded=0;" parent="1" vertex="1">
          <mxGeometry x="680" y="594" width="170.8" height="20" as="geometry" />
        </mxCell>
        <mxCell id="Xcc2Si-ru2YFNp3SEIyi-4" style="edgeStyle=orthogonalEdgeStyle;rounded=0;orthogonalLoop=1;jettySize=auto;html=1;exitX=0;exitY=0.5;exitDx=0;exitDy=0;entryX=1;entryY=0.5;entryDx=0;entryDy=0;" parent="1" target="TYA-corCzER_tpGZpnsk-67" edge="1">
          <mxGeometry relative="1" as="geometry">
            <mxPoint x="780" y="1328" as="sourcePoint" />
          </mxGeometry>
        </mxCell>
        <mxCell id="Xcc2Si-ru2YFNp3SEIyi-15" style="edgeStyle=orthogonalEdgeStyle;rounded=0;orthogonalLoop=1;jettySize=auto;html=1;exitX=0.5;exitY=1;exitDx=0;exitDy=0;entryX=0;entryY=0.5;entryDx=0;entryDy=0;entryPerimeter=0;" parent="1" source="TYA-corCzER_tpGZpnsk-62" target="Xcc2Si-ru2YFNp3SEIyi-3" edge="1">
          <mxGeometry relative="1" as="geometry" />
        </mxCell>
        <mxCell id="TYA-corCzER_tpGZpnsk-62" value="&lt;span style=&quot;font-weight: normal&quot;&gt;No&lt;/span&gt;" style="rounded=0;whiteSpace=wrap;html=1;fillColor=#dae8fc;strokeColor=#6c8ebf;fontStyle=1;align=center;" parent="1" vertex="1">
          <mxGeometry x="270" y="1313" width="50" height="30" as="geometry" />
        </mxCell>
        <mxCell id="Xcc2Si-ru2YFNp3SEIyi-11" style="edgeStyle=orthogonalEdgeStyle;rounded=0;orthogonalLoop=1;jettySize=auto;html=1;exitX=1;exitY=0.5;exitDx=0;exitDy=0;entryX=0;entryY=0.5;entryDx=0;entryDy=0;" parent="1" source="TYA-corCzER_tpGZpnsk-64" target="TYA-corCzER_tpGZpnsk-73" edge="1">
          <mxGeometry relative="1" as="geometry" />
        </mxCell>
        <mxCell id="TYA-corCzER_tpGZpnsk-64" value="&lt;span style=&quot;font-weight: normal&quot;&gt;Yes&lt;/span&gt;" style="rounded=0;whiteSpace=wrap;html=1;fillColor=#dae8fc;strokeColor=#6c8ebf;fontStyle=1;align=center;" parent="1" vertex="1">
          <mxGeometry x="455" y="1413" width="50" height="30" as="geometry" />
        </mxCell>
        <mxCell id="HUFOrXZjp_os2G7rT3iw-39" style="edgeStyle=orthogonalEdgeStyle;rounded=0;orthogonalLoop=1;jettySize=auto;html=1;exitX=0.5;exitY=1;exitDx=0;exitDy=0;entryX=0.5;entryY=0;entryDx=0;entryDy=0;" parent="1" source="TYA-corCzER_tpGZpnsk-53" target="TYA-corCzER_tpGZpnsk-46" edge="1">
          <mxGeometry relative="1" as="geometry">
            <mxPoint x="1300.5" y="559" as="sourcePoint" />
          </mxGeometry>
        </mxCell>
        <mxCell id="TYA-corCzER_tpGZpnsk-53" value="" style="ellipse;whiteSpace=wrap;html=1;aspect=fixed;fillColor=#ffe6cc;strokeColor=#d79b00;" parent="1" vertex="1">
          <mxGeometry x="1300.5" y="465" width="30" height="30" as="geometry" />
        </mxCell>
        <mxCell id="TYA-corCzER_tpGZpnsk-55" value="&lt;b&gt;trg_ai_tbl_change_request_status&lt;/b&gt;" style="text;html=1;strokeColor=#d79b00;fillColor=#ffe6cc;align=center;verticalAlign=middle;whiteSpace=wrap;rounded=0;" parent="1" vertex="1">
          <mxGeometry x="1213" y="423" width="200" height="20" as="geometry" />
        </mxCell>
        <mxCell id="Xcc2Si-ru2YFNp3SEIyi-6" style="edgeStyle=orthogonalEdgeStyle;rounded=0;orthogonalLoop=1;jettySize=auto;html=1;exitX=0;exitY=0.5;exitDx=0;exitDy=0;" parent="1" source="TYA-corCzER_tpGZpnsk-67" target="Xcc2Si-ru2YFNp3SEIyi-5" edge="1">
          <mxGeometry relative="1" as="geometry" />
        </mxCell>
        <mxCell id="TYA-corCzER_tpGZpnsk-67" value="" style="ellipse;whiteSpace=wrap;html=1;aspect=fixed;fillColor=#ffe6cc;strokeColor=#d79b00;" parent="1" vertex="1">
          <mxGeometry x="660" y="1313" width="30" height="30" as="geometry" />
        </mxCell>
        <mxCell id="TYA-corCzER_tpGZpnsk-68" value="&lt;b&gt;trg_i_tbl_unit_sla_season&lt;/b&gt;" style="text;html=1;strokeColor=#d79b00;fillColor=#ffe6cc;align=center;verticalAlign=middle;whiteSpace=wrap;rounded=0;" parent="1" vertex="1">
          <mxGeometry x="585" y="1289" width="180" height="20" as="geometry" />
        </mxCell>
        <mxCell id="TYA-corCzER_tpGZpnsk-73" value="Update:&lt;br&gt;&lt;span style=&quot;font-weight: normal&quot;&gt;existing record in tbl_unit_sla_season with the values&lt;/span&gt;&lt;br&gt;&lt;span style=&quot;font-weight: normal&quot;&gt;- effective = 0&lt;br&gt;- effective_end_adj date equal to the current date minus one day&lt;br&gt;&lt;/span&gt;" style="rounded=0;whiteSpace=wrap;html=1;fillColor=#97D077;strokeColor=#82b366;fontStyle=1;align=left;" parent="1" vertex="1">
          <mxGeometry x="560" y="1383.25" width="230" height="89.5" as="geometry" />
        </mxCell>
        <mxCell id="XjfmwIq85a9qO-nbTn4X-13" value="" style="edgeStyle=orthogonalEdgeStyle;rounded=0;orthogonalLoop=1;jettySize=auto;html=1;" parent="1" source="TYA-corCzER_tpGZpnsk-46" target="XjfmwIq85a9qO-nbTn4X-8" edge="1">
          <mxGeometry relative="1" as="geometry" />
        </mxCell>
        <mxCell id="TYA-corCzER_tpGZpnsk-46" value="" style="rhombus;whiteSpace=wrap;html=1;align=left;fillColor=#f8cecc;strokeColor=#b85450;" parent="1" vertex="1">
          <mxGeometry x="858" y="589" width="30" height="30" as="geometry" />
        </mxCell>
        <mxCell id="Ly3nlQLUf3ytLONR5fyU-7" style="edgeStyle=orthogonalEdgeStyle;rounded=0;orthogonalLoop=1;jettySize=auto;html=1;entryX=0.5;entryY=1;entryDx=0;entryDy=0;" edge="1" parent="1" source="utrAC_NS1D6aVvXHYf-W-7" target="Ly3nlQLUf3ytLONR5fyU-9">
          <mxGeometry relative="1" as="geometry">
            <mxPoint x="1195" y="265" as="targetPoint" />
          </mxGeometry>
        </mxCell>
        <mxCell id="utrAC_NS1D6aVvXHYf-W-7" value="&lt;div style=&quot;text-align: left&quot;&gt;&lt;b&gt;Update:&lt;/b&gt;&lt;/div&gt;&lt;div style=&quot;text-align: left&quot;&gt;&lt;span&gt;change request record in&lt;/span&gt;&lt;span&gt;&amp;nbsp;&lt;/span&gt;&lt;span&gt;tbl_change_request with sla_change_status = 2 for &quot;approved&quot;&lt;/span&gt;&lt;br&gt;&lt;/div&gt;" style="rounded=0;whiteSpace=wrap;html=1;fillColor=#97D077;strokeColor=#82b366;" parent="1" vertex="1">
          <mxGeometry x="800" y="305" width="230" height="90" as="geometry" />
        </mxCell>
        <mxCell id="utrAC_NS1D6aVvXHYf-W-27" value="&lt;i&gt;In addition to being called by the trigger, this stored procedure is schedule to run once daily.&lt;/i&gt;" style="rounded=0;whiteSpace=wrap;html=1;" parent="1" vertex="1">
          <mxGeometry x="382" y="440" width="120" height="80" as="geometry" />
        </mxCell>
        <mxCell id="Xcc2Si-ru2YFNp3SEIyi-3" value="No Transaction Required" style="whiteSpace=wrap;html=1;shape=mxgraph.basic.octagon2;align=center;verticalAlign=middle;dx=15;fillColor=#fff2cc;strokeColor=#d6b656;direction=south;" parent="1" vertex="1">
          <mxGeometry x="245" y="1372.75" width="100" height="100" as="geometry" />
        </mxCell>
        <mxCell id="Xcc2Si-ru2YFNp3SEIyi-10" style="edgeStyle=orthogonalEdgeStyle;rounded=0;orthogonalLoop=1;jettySize=auto;html=1;exitX=0.5;exitY=1;exitDx=0;exitDy=0;entryX=0.5;entryY=0;entryDx=0;entryDy=0;" parent="1" source="Xcc2Si-ru2YFNp3SEIyi-5" target="TYA-corCzER_tpGZpnsk-64" edge="1">
          <mxGeometry relative="1" as="geometry" />
        </mxCell>
        <mxCell id="Xcc2Si-ru2YFNp3SEIyi-13" style="edgeStyle=orthogonalEdgeStyle;rounded=0;orthogonalLoop=1;jettySize=auto;html=1;exitX=0;exitY=0.5;exitDx=0;exitDy=0;entryX=1;entryY=0.5;entryDx=0;entryDy=0;" parent="1" source="Xcc2Si-ru2YFNp3SEIyi-5" target="TYA-corCzER_tpGZpnsk-62" edge="1">
          <mxGeometry relative="1" as="geometry" />
        </mxCell>
        <mxCell id="Xcc2Si-ru2YFNp3SEIyi-5" value="&lt;span style=&quot;font-weight: 400 ; text-align: center&quot;&gt;Does tbl_unit_sla_season have a record for this unit with value of effective = 1?&lt;/span&gt;" style="rounded=0;whiteSpace=wrap;html=1;fillColor=#dae8fc;strokeColor=#6c8ebf;fontStyle=1;align=left;" parent="1" vertex="1">
          <mxGeometry x="385" y="1303" width="190" height="50" as="geometry" />
        </mxCell>
        <mxCell id="Xcc2Si-ru2YFNp3SEIyi-16" value="&lt;b&gt;End&lt;/b&gt;" style="text;html=1;strokeColor=none;fillColor=none;align=center;verticalAlign=middle;whiteSpace=wrap;rounded=0;" parent="1" vertex="1">
          <mxGeometry x="655" y="1473" width="40" height="20" as="geometry" />
        </mxCell>
        <mxCell id="e-__jFEW9f1SL3vXLQ8T-5" style="edgeStyle=orthogonalEdgeStyle;rounded=0;orthogonalLoop=1;jettySize=auto;html=1;entryX=0;entryY=0.5;entryDx=0;entryDy=0;" parent="1" source="TYA-corCzER_tpGZpnsk-7" target="TYA-corCzER_tpGZpnsk-9" edge="1">
          <mxGeometry relative="1" as="geometry">
            <mxPoint x="370" y="300" as="sourcePoint" />
          </mxGeometry>
        </mxCell>
        <mxCell id="Ly3nlQLUf3ytLONR5fyU-60" style="edgeStyle=orthogonalEdgeStyle;rounded=0;orthogonalLoop=1;jettySize=auto;html=1;" edge="1" parent="1" source="e-__jFEW9f1SL3vXLQ8T-8">
          <mxGeometry relative="1" as="geometry">
            <mxPoint x="1193" y="1270" as="targetPoint" />
          </mxGeometry>
        </mxCell>
        <mxCell id="e-__jFEW9f1SL3vXLQ8T-8" value="&lt;div style=&quot;&quot;&gt;&lt;b&gt;Update:&lt;/b&gt;&lt;/div&gt;&lt;div style=&quot;&quot;&gt;&lt;span&gt;tbl_change_request set values with&amp;nbsp;&lt;/span&gt;&lt;/div&gt;&lt;div style=&quot;&quot;&gt;&lt;span&gt;- sla_change_status = 4 for &quot;invalid&quot;&lt;/span&gt;&lt;/div&gt;" style="rounded=0;whiteSpace=wrap;html=1;fillColor=#97D077;strokeColor=#82b366;align=left;" parent="1" vertex="1">
          <mxGeometry x="1078" y="1063.75" width="230" height="70.5" as="geometry" />
        </mxCell>
        <mxCell id="3o3nBdtsmn0ed2RaHUh7-16" style="edgeStyle=orthogonalEdgeStyle;rounded=0;orthogonalLoop=1;jettySize=auto;html=1;entryX=0.5;entryY=0;entryDx=0;entryDy=0;" parent="1" source="e-__jFEW9f1SL3vXLQ8T-9" target="3o3nBdtsmn0ed2RaHUh7-15" edge="1">
          <mxGeometry relative="1" as="geometry">
            <mxPoint x="875.8000000000002" y="1274" as="targetPoint" />
          </mxGeometry>
        </mxCell>
        <mxCell id="e-__jFEW9f1SL3vXLQ8T-9" value="No" style="rounded=0;whiteSpace=wrap;html=1;fillColor=#dae8fc;strokeColor=#6c8ebf;" parent="1" vertex="1">
          <mxGeometry x="850.8" y="1174" width="50" height="30" as="geometry" />
        </mxCell>
        <mxCell id="XjfmwIq85a9qO-nbTn4X-1" value="&lt;b&gt;Start&lt;br&gt;&lt;/b&gt;" style="text;html=1;strokeColor=none;fillColor=none;align=center;verticalAlign=middle;whiteSpace=wrap;rounded=0;" parent="1" vertex="1">
          <mxGeometry x="115" y="245" width="40" height="20" as="geometry" />
        </mxCell>
        <mxCell id="3o3nBdtsmn0ed2RaHUh7-7" style="edgeStyle=orthogonalEdgeStyle;rounded=0;orthogonalLoop=1;jettySize=auto;html=1;exitX=0.5;exitY=1;exitDx=0;exitDy=0;entryX=0.5;entryY=0;entryDx=0;entryDy=0;" parent="1" source="XjfmwIq85a9qO-nbTn4X-8" target="TYA-corCzER_tpGZpnsk-32" edge="1">
          <mxGeometry relative="1" as="geometry" />
        </mxCell>
        <mxCell id="XjfmwIq85a9qO-nbTn4X-8" value="" style="rhombus;whiteSpace=wrap;html=1;align=left;fillColor=#f8cecc;strokeColor=#b85450;" parent="1" vertex="1">
          <mxGeometry x="858" y="659" width="30" height="30" as="geometry" />
        </mxCell>
        <mxCell id="XjfmwIq85a9qO-nbTn4X-9" value="&lt;b&gt;sp_u_tbl_change_request&lt;br&gt;&lt;/b&gt;" style="text;html=1;strokeColor=#b85450;fillColor=#f8cecc;align=center;verticalAlign=middle;whiteSpace=wrap;rounded=0;" parent="1" vertex="1">
          <mxGeometry x="676.8" y="664" width="174" height="20" as="geometry" />
        </mxCell>
        <mxCell id="XjfmwIq85a9qO-nbTn4X-15" value="Does the change request reference a season with effective value&amp;nbsp; = 0?" style="rounded=0;whiteSpace=wrap;html=1;fillColor=#99CCFF;strokeColor=#6c8ebf;" parent="1" vertex="1">
          <mxGeometry x="1008" y="904" width="124" height="71" as="geometry" />
        </mxCell>
        <mxCell id="XjfmwIq85a9qO-nbTn4X-20" value="Is the change request sla_code consistent with the change request seasonality (ie. periodic vs. year-round)?" style="rounded=0;whiteSpace=wrap;html=1;fillColor=#99CCFF;strokeColor=#6c8ebf;" parent="1" vertex="1">
          <mxGeometry x="748" y="904" width="124" height="90" as="geometry" />
        </mxCell>
        <mxCell id="XjfmwIq85a9qO-nbTn4X-22" value="Does the change request reference a unit that has a unit_status = D for &quot;decommissioned&quot;" style="rounded=0;whiteSpace=wrap;html=1;fillColor=#99CCFF;strokeColor=#6c8ebf;" parent="1" vertex="1">
          <mxGeometry x="878" y="904" width="124" height="90" as="geometry" />
        </mxCell>
        <mxCell id="XjfmwIq85a9qO-nbTn4X-24" value="Is the effective_start_adj of the change request greater than or equal to the effective_end_adj of the referenced season?" style="rounded=0;whiteSpace=wrap;html=1;fillColor=#99CCFF;strokeColor=#6c8ebf;" parent="1" vertex="1">
          <mxGeometry x="618" y="904" width="124" height="120" as="geometry" />
        </mxCell>
        <mxCell id="3o3nBdtsmn0ed2RaHUh7-12" value="" style="edgeStyle=orthogonalEdgeStyle;rounded=0;orthogonalLoop=1;jettySize=auto;html=1;" parent="1" source="3o3nBdtsmn0ed2RaHUh7-1" target="e-__jFEW9f1SL3vXLQ8T-9" edge="1">
          <mxGeometry relative="1" as="geometry" />
        </mxCell>
        <mxCell id="3o3nBdtsmn0ed2RaHUh7-18" style="edgeStyle=orthogonalEdgeStyle;rounded=0;orthogonalLoop=1;jettySize=auto;html=1;exitX=1;exitY=0.5;exitDx=0;exitDy=0;" parent="1" source="3o3nBdtsmn0ed2RaHUh7-1" target="3o3nBdtsmn0ed2RaHUh7-17" edge="1">
          <mxGeometry relative="1" as="geometry" />
        </mxCell>
        <mxCell id="3o3nBdtsmn0ed2RaHUh7-1" value="Is the answer to any of these questions &quot;yes&quot;?" style="rounded=0;whiteSpace=wrap;html=1;fillColor=#dae8fc;strokeColor=#6c8ebf;" parent="1" vertex="1">
          <mxGeometry x="815.8" y="1069" width="120" height="60" as="geometry" />
        </mxCell>
        <mxCell id="3o3nBdtsmn0ed2RaHUh7-2" value="" style="strokeWidth=2;html=1;shape=mxgraph.flowchart.annotation_2;align=left;labelPosition=right;pointerEvents=1;fillColor=#FF0000;gradientColor=none;rotation=90;" parent="1" vertex="1">
          <mxGeometry x="850.8" y="618.6700000000001" width="50" height="522.93" as="geometry" />
        </mxCell>
        <mxCell id="3o3nBdtsmn0ed2RaHUh7-9" value="Yes" style="rounded=0;whiteSpace=wrap;html=1;fillColor=#99CCFF;strokeColor=#6c8ebf;" parent="1" vertex="1">
          <mxGeometry x="848" y="824" width="50" height="30" as="geometry" />
        </mxCell>
        <mxCell id="3o3nBdtsmn0ed2RaHUh7-11" value="" style="strokeWidth=2;html=1;shape=mxgraph.flowchart.annotation_2;align=left;labelPosition=right;pointerEvents=1;fillColor=#FF0000;gradientColor=none;rotation=-90;" parent="1" vertex="1">
          <mxGeometry x="850.8" y="783.5" width="50" height="522.93" as="geometry" />
        </mxCell>
        <mxCell id="3o3nBdtsmn0ed2RaHUh7-15" value="Insert:&lt;br&gt;&lt;span style=&quot;font-weight: 400&quot;&gt;new record into tbl_unit_sla_season ONLY where the value of sla_change_status = 2 for &quot;approved&quot;&lt;/span&gt;" style="rounded=0;whiteSpace=wrap;html=1;fillColor=#97D077;strokeColor=#82b366;fontStyle=1;align=left;" parent="1" vertex="1">
          <mxGeometry x="775.8" y="1293" width="200" height="70" as="geometry" />
        </mxCell>
        <mxCell id="3o3nBdtsmn0ed2RaHUh7-19" style="edgeStyle=orthogonalEdgeStyle;rounded=0;orthogonalLoop=1;jettySize=auto;html=1;exitX=1;exitY=0.5;exitDx=0;exitDy=0;entryX=0;entryY=0.5;entryDx=0;entryDy=0;" parent="1" source="3o3nBdtsmn0ed2RaHUh7-17" target="e-__jFEW9f1SL3vXLQ8T-8" edge="1">
          <mxGeometry relative="1" as="geometry" />
        </mxCell>
        <mxCell id="3o3nBdtsmn0ed2RaHUh7-17" value="Yes" style="rounded=0;whiteSpace=wrap;html=1;fillColor=#99CCFF;strokeColor=#6c8ebf;" parent="1" vertex="1">
          <mxGeometry x="975.8" y="1084" width="50" height="30" as="geometry" />
        </mxCell>
        <mxCell id="HUFOrXZjp_os2G7rT3iw-1" value="&lt;b&gt;trg_ii_tbl_change_request&lt;/b&gt;" style="text;html=1;strokeColor=#d79b00;fillColor=#ffe6cc;align=center;verticalAlign=middle;whiteSpace=wrap;rounded=0;" parent="1" vertex="1">
          <mxGeometry x="222" y="390" width="180" height="20" as="geometry" />
        </mxCell>
        <mxCell id="HUFOrXZjp_os2G7rT3iw-22" value="" style="edgeStyle=orthogonalEdgeStyle;rounded=0;orthogonalLoop=1;jettySize=auto;html=1;" parent="1" source="HUFOrXZjp_os2G7rT3iw-2" target="HUFOrXZjp_os2G7rT3iw-21" edge="1">
          <mxGeometry relative="1" as="geometry" />
        </mxCell>
        <mxCell id="HUFOrXZjp_os2G7rT3iw-24" style="edgeStyle=orthogonalEdgeStyle;rounded=0;orthogonalLoop=1;jettySize=auto;html=1;exitX=0;exitY=0.5;exitDx=0;exitDy=0;entryX=1;entryY=0.5;entryDx=0;entryDy=0;" parent="1" source="HUFOrXZjp_os2G7rT3iw-2" target="HUFOrXZjp_os2G7rT3iw-20" edge="1">
          <mxGeometry relative="1" as="geometry" />
        </mxCell>
        <mxCell id="HUFOrXZjp_os2G7rT3iw-2" value="Does a sla_change_status = 2 or &quot;submitted&quot; change request already exist for the unit?" style="rounded=0;whiteSpace=wrap;html=1;fillColor=#99CCFF;strokeColor=#6c8ebf;" parent="1" vertex="1">
          <mxGeometry x="114.51" y="470" width="175" height="70" as="geometry" />
        </mxCell>
        <mxCell id="HUFOrXZjp_os2G7rT3iw-14" style="edgeStyle=orthogonalEdgeStyle;rounded=0;orthogonalLoop=1;jettySize=auto;html=1;exitX=1;exitY=0.5;exitDx=0;exitDy=0;entryX=0;entryY=0.5;entryDx=0;entryDy=0;" parent="1" source="HUFOrXZjp_os2G7rT3iw-4" target="HUFOrXZjp_os2G7rT3iw-7" edge="1">
          <mxGeometry relative="1" as="geometry" />
        </mxCell>
        <mxCell id="HUFOrXZjp_os2G7rT3iw-4" value="Cancel Request" style="rounded=0;whiteSpace=wrap;html=1;fillColor=#dae8fc;strokeColor=#6c8ebf;" parent="1" vertex="1">
          <mxGeometry x="600" y="90" width="120" height="60" as="geometry" />
        </mxCell>
        <mxCell id="Ly3nlQLUf3ytLONR5fyU-3" value="" style="edgeStyle=orthogonalEdgeStyle;rounded=0;orthogonalLoop=1;jettySize=auto;html=1;entryX=0.5;entryY=0;entryDx=0;entryDy=0;" edge="1" parent="1" source="HUFOrXZjp_os2G7rT3iw-7" target="Ly3nlQLUf3ytLONR5fyU-9">
          <mxGeometry relative="1" as="geometry">
            <mxPoint x="1195" y="205" as="targetPoint" />
          </mxGeometry>
        </mxCell>
        <mxCell id="HUFOrXZjp_os2G7rT3iw-7" value="&lt;div&gt;&lt;span&gt;&lt;b&gt;Update:&lt;/b&gt;&lt;/span&gt;&lt;/div&gt;&lt;div&gt;&lt;span&gt;change request record in tbl_change_request with sla_change_status = 4 for &quot;cancelled&quot;&lt;/span&gt;&lt;/div&gt;" style="rounded=0;whiteSpace=wrap;html=1;fillColor=#97D077;strokeColor=#82b366;align=left;" parent="1" vertex="1">
          <mxGeometry x="797" y="75" width="230" height="90" as="geometry" />
        </mxCell>
        <mxCell id="HUFOrXZjp_os2G7rT3iw-15" value="&lt;div&gt;&lt;span style=&quot;font-weight: normal&quot;&gt;No change request inserted, return warning to user&lt;/span&gt;&lt;/div&gt;" style="rounded=0;whiteSpace=wrap;html=1;fillColor=#97D077;strokeColor=#82b366;align=left;fontStyle=1" parent="1" vertex="1">
          <mxGeometry x="-20" y="560" width="130" height="60" as="geometry" />
        </mxCell>
        <mxCell id="HUFOrXZjp_os2G7rT3iw-19" style="edgeStyle=orthogonalEdgeStyle;rounded=0;orthogonalLoop=1;jettySize=auto;html=1;exitX=0.5;exitY=1;exitDx=0;exitDy=0;entryX=0.5;entryY=0;entryDx=0;entryDy=0;" parent="1" source="HUFOrXZjp_os2G7rT3iw-16" target="HUFOrXZjp_os2G7rT3iw-2" edge="1">
          <mxGeometry relative="1" as="geometry" />
        </mxCell>
        <mxCell id="HUFOrXZjp_os2G7rT3iw-16" value="" style="ellipse;whiteSpace=wrap;html=1;aspect=fixed;fillColor=#ffe6cc;strokeColor=#d79b00;" parent="1" vertex="1">
          <mxGeometry x="187" y="385" width="30" height="30" as="geometry" />
        </mxCell>
        <mxCell id="HUFOrXZjp_os2G7rT3iw-25" style="edgeStyle=orthogonalEdgeStyle;rounded=0;orthogonalLoop=1;jettySize=auto;html=1;exitX=0.5;exitY=1;exitDx=0;exitDy=0;entryX=0.5;entryY=0;entryDx=0;entryDy=0;" parent="1" source="HUFOrXZjp_os2G7rT3iw-20" target="HUFOrXZjp_os2G7rT3iw-15" edge="1">
          <mxGeometry relative="1" as="geometry" />
        </mxCell>
        <mxCell id="HUFOrXZjp_os2G7rT3iw-20" value="Yes" style="rounded=0;whiteSpace=wrap;html=1;fillColor=#99CCFF;strokeColor=#6c8ebf;" parent="1" vertex="1">
          <mxGeometry x="20" y="490" width="50" height="30" as="geometry" />
        </mxCell>
        <mxCell id="HUFOrXZjp_os2G7rT3iw-23" value="" style="edgeStyle=orthogonalEdgeStyle;rounded=0;orthogonalLoop=1;jettySize=auto;html=1;" parent="1" source="HUFOrXZjp_os2G7rT3iw-21" target="TYA-corCzER_tpGZpnsk-22" edge="1">
          <mxGeometry relative="1" as="geometry" />
        </mxCell>
        <mxCell id="HUFOrXZjp_os2G7rT3iw-21" value="No" style="rounded=0;whiteSpace=wrap;html=1;fillColor=#99CCFF;strokeColor=#6c8ebf;" parent="1" vertex="1">
          <mxGeometry x="177" y="590" width="50" height="30" as="geometry" />
        </mxCell>
        <mxCell id="HUFOrXZjp_os2G7rT3iw-26" style="edgeStyle=orthogonalEdgeStyle;rounded=0;orthogonalLoop=1;jettySize=auto;html=1;exitX=0.5;exitY=1;exitDx=0;exitDy=0;" parent="1" source="HUFOrXZjp_os2G7rT3iw-15" target="HUFOrXZjp_os2G7rT3iw-15" edge="1">
          <mxGeometry relative="1" as="geometry" />
        </mxCell>
        <mxCell id="HUFOrXZjp_os2G7rT3iw-28" value="&lt;b&gt;trg_ai_tbl_change_request&lt;/b&gt;" style="text;html=1;strokeColor=#d79b00;fillColor=#ffe6cc;align=center;verticalAlign=middle;whiteSpace=wrap;rounded=0;" parent="1" vertex="1">
          <mxGeometry x="220" y="806" width="182" height="20" as="geometry" />
        </mxCell>
        <mxCell id="HUFOrXZjp_os2G7rT3iw-34" style="edgeStyle=orthogonalEdgeStyle;rounded=0;orthogonalLoop=1;jettySize=auto;html=1;exitX=0.5;exitY=1;exitDx=0;exitDy=0;entryX=0.5;entryY=0;entryDx=0;entryDy=0;" parent="1" source="HUFOrXZjp_os2G7rT3iw-29" target="TYA-corCzER_tpGZpnsk-24" edge="1">
          <mxGeometry relative="1" as="geometry" />
        </mxCell>
        <mxCell id="HUFOrXZjp_os2G7rT3iw-29" value="" style="ellipse;whiteSpace=wrap;html=1;aspect=fixed;fillColor=#ffe6cc;strokeColor=#d79b00;" parent="1" vertex="1">
          <mxGeometry x="187" y="801" width="30" height="30" as="geometry" />
        </mxCell>
        <mxCell id="HUFOrXZjp_os2G7rT3iw-31" style="edgeStyle=orthogonalEdgeStyle;rounded=0;orthogonalLoop=1;jettySize=auto;html=1;exitX=0.5;exitY=1;exitDx=0;exitDy=0;" parent="1" source="HUFOrXZjp_os2G7rT3iw-29" target="HUFOrXZjp_os2G7rT3iw-29" edge="1">
          <mxGeometry relative="1" as="geometry" />
        </mxCell>
        <mxCell id="gYBFZbuTnCWKFlB4koAg-1" value="Business Process" style="rounded=0;whiteSpace=wrap;html=1;fillColor=#99CCFF;strokeColor=#6c8ebf;" parent="1" vertex="1">
          <mxGeometry x="20" y="20" width="120" height="60" as="geometry" />
        </mxCell>
        <mxCell id="gYBFZbuTnCWKFlB4koAg-2" value="Cancel Request" style="rounded=0;whiteSpace=wrap;html=1;fillColor=#99CCFF;strokeColor=#6c8ebf;" parent="1" vertex="1">
          <mxGeometry x="600" y="90" width="120" height="60" as="geometry" />
        </mxCell>
        <mxCell id="gYBFZbuTnCWKFlB4koAg-3" value="Reject Request" style="rounded=0;whiteSpace=wrap;html=1;fillColor=#99CCFF;strokeColor=#6c8ebf;" parent="1" vertex="1">
          <mxGeometry x="600" y="205" width="120" height="60" as="geometry" />
        </mxCell>
        <mxCell id="gYBFZbuTnCWKFlB4koAg-4" value="Approve Request" style="rounded=0;whiteSpace=wrap;html=1;fillColor=#99CCFF;strokeColor=#6c8ebf;" parent="1" vertex="1">
          <mxGeometry x="600" y="320" width="120" height="60" as="geometry" />
        </mxCell>
        <mxCell id="RhcDBgVmTd3TejFWE7ym-1" style="edgeStyle=orthogonalEdgeStyle;rounded=0;orthogonalLoop=1;jettySize=auto;html=1;exitX=1;exitY=0.5;exitDx=0;exitDy=0;entryX=0;entryY=0.5;entryDx=0;entryDy=0;" parent="1" source="gYBFZbuTnCWKFlB4koAg-5" target="gYBFZbuTnCWKFlB4koAg-4" edge="1">
          <mxGeometry relative="1" as="geometry" />
        </mxCell>
        <mxCell id="RhcDBgVmTd3TejFWE7ym-2" style="edgeStyle=orthogonalEdgeStyle;rounded=0;orthogonalLoop=1;jettySize=auto;html=1;exitX=1;exitY=0.5;exitDx=0;exitDy=0;entryX=0;entryY=0.5;entryDx=0;entryDy=0;" parent="1" source="gYBFZbuTnCWKFlB4koAg-5" target="gYBFZbuTnCWKFlB4koAg-3" edge="1">
          <mxGeometry relative="1" as="geometry" />
        </mxCell>
        <mxCell id="gYBFZbuTnCWKFlB4koAg-5" value="COO Focht Reviews Request" style="rounded=0;whiteSpace=wrap;html=1;fillColor=#99CCFF;strokeColor=#6c8ebf;" parent="1" vertex="1">
          <mxGeometry x="440" y="270" width="120" height="60" as="geometry" />
        </mxCell>
        <mxCell id="gYBFZbuTnCWKFlB4koAg-6" value="&lt;span style=&quot;font-weight: normal&quot;&gt;No&lt;/span&gt;" style="rounded=0;whiteSpace=wrap;html=1;fillColor=#99CCFF;strokeColor=#6c8ebf;fontStyle=1;align=center;" parent="1" vertex="1">
          <mxGeometry x="270" y="1313" width="50" height="30" as="geometry" />
        </mxCell>
        <mxCell id="gYBFZbuTnCWKFlB4koAg-7" value="&lt;span style=&quot;font-weight: 400 ; text-align: center&quot;&gt;Does tbl_unit_sla_season have a record for this unit with value of effective = 1?&lt;/span&gt;" style="rounded=0;whiteSpace=wrap;html=1;fillColor=#99CCFF;strokeColor=#6c8ebf;fontStyle=1;align=left;" parent="1" vertex="1">
          <mxGeometry x="385" y="1303" width="190" height="50" as="geometry" />
        </mxCell>
        <mxCell id="gYBFZbuTnCWKFlB4koAg-8" value="&lt;span style=&quot;font-weight: normal&quot;&gt;Yes&lt;/span&gt;" style="rounded=0;whiteSpace=wrap;html=1;fillColor=#99CCFF;strokeColor=#6c8ebf;fontStyle=1;align=center;" parent="1" vertex="1">
          <mxGeometry x="455" y="1413" width="50" height="30" as="geometry" />
        </mxCell>
        <mxCell id="gYBFZbuTnCWKFlB4koAg-9" value="No" style="rounded=0;whiteSpace=wrap;html=1;fillColor=#99CCFF;strokeColor=#6c8ebf;" parent="1" vertex="1">
          <mxGeometry x="850.8" y="1174" width="50" height="30" as="geometry" />
        </mxCell>
        <mxCell id="gYBFZbuTnCWKFlB4koAg-10" value="Is the answer to any of these questions &quot;yes&quot;?" style="rounded=0;whiteSpace=wrap;html=1;fillColor=#99CCFF;strokeColor=#6c8ebf;" parent="1" vertex="1">
          <mxGeometry x="815.8" y="1069" width="120" height="60" as="geometry" />
        </mxCell>
        <mxCell id="Ly3nlQLUf3ytLONR5fyU-16" style="edgeStyle=orthogonalEdgeStyle;rounded=0;orthogonalLoop=1;jettySize=auto;html=1;entryX=0;entryY=0.5;entryDx=0;entryDy=0;" edge="1" parent="1" source="Ly3nlQLUf3ytLONR5fyU-8" target="Ly3nlQLUf3ytLONR5fyU-15">
          <mxGeometry relative="1" as="geometry" />
        </mxCell>
        <mxCell id="Ly3nlQLUf3ytLONR5fyU-8" value="&lt;b&gt;trg_fu_tbl_change_request&lt;/b&gt;" style="text;html=1;strokeColor=#d79b00;fillColor=#ffe6cc;align=center;verticalAlign=middle;whiteSpace=wrap;rounded=0;" vertex="1" parent="1">
          <mxGeometry x="1168" y="225" width="182" height="20" as="geometry" />
        </mxCell>
        <mxCell id="Ly3nlQLUf3ytLONR5fyU-9" value="" style="ellipse;whiteSpace=wrap;html=1;aspect=fixed;fillColor=#ffe6cc;strokeColor=#d79b00;" vertex="1" parent="1">
          <mxGeometry x="1135" y="220" width="30" height="30" as="geometry" />
        </mxCell>
        <mxCell id="Ly3nlQLUf3ytLONR5fyU-40" style="edgeStyle=orthogonalEdgeStyle;rounded=0;orthogonalLoop=1;jettySize=auto;html=1;" edge="1" parent="1" source="Ly3nlQLUf3ytLONR5fyU-15">
          <mxGeometry relative="1" as="geometry">
            <mxPoint x="1569" y="360" as="targetPoint" />
          </mxGeometry>
        </mxCell>
        <mxCell id="Ly3nlQLUf3ytLONR5fyU-15" value="Insert:&lt;br&gt;&lt;span style=&quot;font-weight: normal&quot;&gt;new record into tbl_change_request_status with&lt;br&gt;- corresponding change_request_id&amp;nbsp;&amp;nbsp;&lt;/span&gt;&lt;br&gt;&lt;span style=&quot;font-weight: normal&quot;&gt;- sla_change_status = the corresponding status&lt;/span&gt;&lt;br&gt;&lt;span style=&quot;font-weight: normal&quot;&gt;- created_user to the&amp;nbsp;&lt;/span&gt;&lt;span style=&quot;font-weight: 400&quot;&gt;creating user&#39;s employee reference number (ERN)&lt;/span&gt;&lt;span style=&quot;font-weight: normal&quot;&gt;&lt;br&gt;&lt;/span&gt;" style="rounded=0;whiteSpace=wrap;html=1;fillColor=#97D077;strokeColor=#82b366;fontStyle=1;align=left;" vertex="1" parent="1">
          <mxGeometry x="1430" y="180" width="278.75" height="110" as="geometry" />
        </mxCell>
        <mxCell id="Ly3nlQLUf3ytLONR5fyU-36" style="edgeStyle=orthogonalEdgeStyle;rounded=0;orthogonalLoop=1;jettySize=auto;html=1;entryX=0.5;entryY=0;entryDx=0;entryDy=0;" edge="1" parent="1" source="Ly3nlQLUf3ytLONR5fyU-27" target="Ly3nlQLUf3ytLONR5fyU-28">
          <mxGeometry relative="1" as="geometry" />
        </mxCell>
        <mxCell id="Ly3nlQLUf3ytLONR5fyU-43" value="" style="edgeStyle=orthogonalEdgeStyle;rounded=0;orthogonalLoop=1;jettySize=auto;html=1;" edge="1" parent="1" source="Ly3nlQLUf3ytLONR5fyU-27" target="Ly3nlQLUf3ytLONR5fyU-41">
          <mxGeometry relative="1" as="geometry" />
        </mxCell>
        <mxCell id="Ly3nlQLUf3ytLONR5fyU-27" value="Is inserted record sla_change_status = 2 for &quot;approved&quot;?" style="rounded=0;whiteSpace=wrap;html=1;fillColor=#99CCFF;strokeColor=#6c8ebf;" vertex="1" parent="1">
          <mxGeometry x="1509.38" y="363" width="120" height="60" as="geometry" />
        </mxCell>
        <mxCell id="Ly3nlQLUf3ytLONR5fyU-34" style="edgeStyle=orthogonalEdgeStyle;rounded=0;orthogonalLoop=1;jettySize=auto;html=1;entryX=1;entryY=0.5;entryDx=0;entryDy=0;" edge="1" parent="1" source="Ly3nlQLUf3ytLONR5fyU-28" target="TYA-corCzER_tpGZpnsk-53">
          <mxGeometry relative="1" as="geometry" />
        </mxCell>
        <mxCell id="Ly3nlQLUf3ytLONR5fyU-28" value="Yes" style="rounded=0;whiteSpace=wrap;html=1;fillColor=#99CCFF;strokeColor=#6c8ebf;" vertex="1" parent="1">
          <mxGeometry x="1544.38" y="465" width="50" height="30" as="geometry" />
        </mxCell>
        <mxCell id="Ly3nlQLUf3ytLONR5fyU-45" value="" style="edgeStyle=orthogonalEdgeStyle;rounded=0;orthogonalLoop=1;jettySize=auto;html=1;" edge="1" parent="1" source="Ly3nlQLUf3ytLONR5fyU-41" target="Ly3nlQLUf3ytLONR5fyU-44">
          <mxGeometry relative="1" as="geometry" />
        </mxCell>
        <mxCell id="Ly3nlQLUf3ytLONR5fyU-41" value="No" style="rounded=0;whiteSpace=wrap;html=1;fillColor=#99CCFF;strokeColor=#6c8ebf;" vertex="1" parent="1">
          <mxGeometry x="1680" y="377" width="50" height="32" as="geometry" />
        </mxCell>
        <mxCell id="Ly3nlQLUf3ytLONR5fyU-44" value="No Transaction Required" style="whiteSpace=wrap;html=1;shape=mxgraph.basic.octagon2;align=center;verticalAlign=middle;dx=15;fillColor=#fff2cc;strokeColor=#d6b656;direction=south;" vertex="1" parent="1">
          <mxGeometry x="1770" y="343" width="100" height="100" as="geometry" />
        </mxCell>
        <mxCell id="Ly3nlQLUf3ytLONR5fyU-59" style="edgeStyle=orthogonalEdgeStyle;rounded=0;orthogonalLoop=1;jettySize=auto;html=1;exitX=0.5;exitY=1;exitDx=0;exitDy=0;entryX=0;entryY=0.5;entryDx=0;entryDy=0;entryPerimeter=0;" edge="1" parent="1" source="Ly3nlQLUf3ytLONR5fyU-46" target="Ly3nlQLUf3ytLONR5fyU-58">
          <mxGeometry relative="1" as="geometry" />
        </mxCell>
        <mxCell id="Ly3nlQLUf3ytLONR5fyU-46" value="Insert:&lt;br&gt;&lt;span style=&quot;font-weight: normal&quot;&gt;new record into tbl_change_request_status with&lt;br&gt;- corresponding change_request_id&amp;nbsp;&amp;nbsp;&lt;/span&gt;&lt;br&gt;&lt;span style=&quot;font-weight: normal&quot;&gt;- sla_change_status = 1 for &quot;submitted&quot;&lt;/span&gt;&lt;br&gt;&lt;span style=&quot;font-weight: normal&quot;&gt;- created_user to the&amp;nbsp;&lt;/span&gt;&lt;span style=&quot;font-weight: 400&quot;&gt;creating user&#39;s employee reference number (ERN)&lt;/span&gt;&lt;span style=&quot;font-weight: normal&quot;&gt;&lt;br&gt;&lt;/span&gt;" style="rounded=0;whiteSpace=wrap;html=1;fillColor=#97D077;strokeColor=#82b366;fontStyle=1;align=left;" vertex="1" parent="1">
          <mxGeometry x="1052" y="1383" width="278.75" height="110" as="geometry" />
        </mxCell>
        <mxCell id="Ly3nlQLUf3ytLONR5fyU-53" value="&lt;b&gt;trg_ai_tbl_change_request&lt;/b&gt;" style="text;html=1;strokeColor=#d79b00;fillColor=#ffe6cc;align=center;verticalAlign=middle;whiteSpace=wrap;rounded=0;" vertex="1" parent="1">
          <mxGeometry x="1212" y="1276.57" width="190.76" height="20" as="geometry" />
        </mxCell>
        <mxCell id="Ly3nlQLUf3ytLONR5fyU-57" style="edgeStyle=orthogonalEdgeStyle;rounded=0;orthogonalLoop=1;jettySize=auto;html=1;exitX=0.5;exitY=1;exitDx=0;exitDy=0;entryX=0.5;entryY=0;entryDx=0;entryDy=0;" edge="1" parent="1" source="Ly3nlQLUf3ytLONR5fyU-54" target="Ly3nlQLUf3ytLONR5fyU-46">
          <mxGeometry relative="1" as="geometry" />
        </mxCell>
        <mxCell id="Ly3nlQLUf3ytLONR5fyU-54" value="" style="ellipse;whiteSpace=wrap;html=1;aspect=fixed;fillColor=#ffe6cc;strokeColor=#d79b00;" vertex="1" parent="1">
          <mxGeometry x="1176.38" y="1271.57" width="30" height="30" as="geometry" />
        </mxCell>
        <mxCell id="Ly3nlQLUf3ytLONR5fyU-55" style="edgeStyle=orthogonalEdgeStyle;rounded=0;orthogonalLoop=1;jettySize=auto;html=1;exitX=0.5;exitY=1;exitDx=0;exitDy=0;" edge="1" parent="1" source="Ly3nlQLUf3ytLONR5fyU-54" target="Ly3nlQLUf3ytLONR5fyU-54">
          <mxGeometry relative="1" as="geometry" />
        </mxCell>
        <mxCell id="Ly3nlQLUf3ytLONR5fyU-58" value="No Transaction Required" style="whiteSpace=wrap;html=1;shape=mxgraph.basic.octagon2;align=center;verticalAlign=middle;dx=15;fillColor=#fff2cc;strokeColor=#d6b656;direction=south;" vertex="1" parent="1">
          <mxGeometry x="1141.38" y="1520" width="100" height="100" as="geometry" />
        </mxCell>
      </root>
    </mxGraphModel>
  </diagram>
</mxfile>
